<svg xmlns="http://www.w3.org/2000/svg" viewBox="0 0 782 653" width="782" height="653">
<rect width="782" height="653" fill="#FCD106"/>
<path d="M 451 499 L 451 554 L 594 554 L 594 499 Z" fill="#000000"/>
<path d="M 624 276 L 480 469 L 594 469 L 594 364 L 599 360 L 603 363 L 603 554 L 652 554 L 653 307 L 650 294 L 644 285 L 634 278 Z" fill="#000000"/>
<path d="M 588 276 L 476 276 L 466 280 L 455 291 L 381 402 L 283 402 L 269 408 L 261 419 L 259 434 L 262 444 L 269 453 L 283 459 L 403 458 L 417 448 L 450 398 L 451 460 Z" fill="#000000"/>
<path d="M 132 237 L 123 249 L 123 468 L 126 475 L 131 480 L 141 484 L 188 484 L 189 537 L 194 547 L 204 553 L 407 554 L 416 551 L 423 544 L 426 536 L 426 485 L 188 484 L 188 234 L 140 234 Z" fill="#000000"/>
<path d="M 477 172 L 474 201 L 481 226 L 498 248 L 519 260 L 531 263 L 549 263 L 564 259 L 578 251 L 589 241 L 601 221 L 606 200 L 603 172 Z" fill="#000000"/>
<path d="M 457 92 L 457 97 L 482 133 L 482 136 L 451 157 L 452 162 L 604 162 L 606 160 L 606 116 L 604 113 L 472 92 Z" fill="#000000"/>
</svg>